<svg width="27" height="25" viewBox="0 0 27 25" fill="none" xmlns="http://www.w3.org/2000/svg">
<path d="M10.875 22.4688C10.875 22.8272 10.7687 23.1777 10.5695 23.4757C10.3704 23.7738 10.0873 24.0061 9.75611 24.1433C9.42492 24.2805 9.06049 24.3164 8.7089 24.2464C8.35731 24.1765 8.03435 24.0039 7.78087 23.7504C7.52739 23.4969 7.35476 23.1739 7.28483 22.8224C7.21489 22.4708 7.25078 22.1063 7.38797 21.7751C7.52515 21.4439 7.75746 21.1609 8.05553 20.9617C8.35359 20.7626 8.70402 20.6563 9.0625 20.6563C9.5432 20.6563 10.0042 20.8472 10.3441 21.1871C10.684 21.527 10.875 21.988 10.875 22.4688ZM20.8437 20.6563C20.4853 20.6563 20.1348 20.7626 19.8368 20.9617C19.5387 21.1609 19.3064 21.4439 19.1692 21.7751C19.032 22.1063 18.9961 22.4708 19.0661 22.8224C19.136 23.1739 19.3086 23.4969 19.5621 23.7504C19.8156 24.0039 20.1386 24.1765 20.4901 24.2464C20.8417 24.3164 21.2062 24.2805 21.5374 24.1433C21.8686 24.0061 22.1516 23.7738 22.3508 23.4757C22.5499 23.1777 22.6562 22.8272 22.6562 22.4688C22.6562 21.988 22.4653 21.527 22.1254 21.1871C21.7855 20.8472 21.3245 20.6563 20.8437 20.6563ZM25.8395 5.61053C25.7551 5.49854 25.6458 5.40768 25.5202 5.34511C25.3947 5.28255 25.2563 5.24999 25.116 5.25H5.47378L4.5547 2.03327C4.44533 1.65521 4.21639 1.32278 3.90219 1.0858C3.58799 0.848808 3.20545 0.720027 2.8119 0.71875H0.90625C0.665897 0.71875 0.435389 0.81423 0.265434 0.984184C0.0954796 1.15414 0 1.38465 0 1.625C0 1.86535 0.0954796 2.09586 0.265434 2.26582C0.435389 2.43577 0.665897 2.53125 0.90625 2.53125H2.8119L3.91418 6.38901C3.91716 6.40018 3.92026 6.4113 3.92369 6.42236L6.90927 16.8718C7.07323 17.439 7.41659 17.9377 7.88789 18.2932C8.35919 18.6487 8.93302 18.8419 9.52337 18.8438H20.3829C20.9732 18.8419 21.547 18.6487 22.0183 18.2932C22.4896 17.9377 22.833 17.439 22.997 16.8719L25.9874 6.40521C26.0259 6.27034 26.0326 6.12837 26.007 5.99047C25.9813 5.85257 25.924 5.72251 25.8395 5.61053Z" fill="#CBCBCB"/>
</svg>
