<svg xmlns="http://www.w3.org/2000/svg" width="137.663" height="48.782" viewBox="0 0 137.663 48.782"><defs><style>.a{fill:#7b7e84;}.b{fill:#fff;}.c{fill:#cf2437;}</style></defs><path class="a" d="M193.659,59.035l-.127-.11c.435-.5.855-1.02,1.255-1.546l.133.1c-.4.529-.822,1.053-1.261,1.556m2.408-3.2-.141-.09c.36-.554.7-1.129,1.022-1.709l.147.08c-.319.581-.664,1.161-1.028,1.719M198,52.329l-.151-.069c.276-.6.534-1.216.767-1.836l.157.059c-.235.622-.5,1.243-.773,1.846m1.409-3.745-.161-.047c.186-.632.354-1.282.5-1.93l.164.035c-.143.652-.311,1.3-.5,1.942m.857-3.911-.164-.023c.094-.652.166-1.319.215-1.979l.164.012c-.047.664-.119,1.333-.215,1.991M150.158,23.858l-.133-.1c.4-.532.824-1.055,1.259-1.558l.127.11c-.435.5-.857,1.022-1.253,1.548m2.611-3-.117-.117c.472-.47.963-.928,1.468-1.364l.108.127c-.5.431-.99.889-1.458,1.355m3.011-2.605-.1-.133c.534-.4,1.086-.785,1.646-1.143l.09.141c-.558.356-1.106.738-1.636,1.135m31.8-1.118c-.554-.358-1.131-.7-1.711-1.018l.08-.147c.583.319,1.161.664,1.721,1.024Zm-28.45-1.037-.08-.147c.585-.321,1.188-.621,1.793-.9l.069.151c-.6.276-1.2.577-1.781.893m24.962-.873c-.6-.276-1.218-.532-1.838-.763l.059-.157c.622.233,1.243.491,1.848.769Zm-21.338-.781-.059-.157c.624-.231,1.263-.444,1.9-.63l.047.161c-.632.186-1.268.4-1.889.626m17.611-.611c-.634-.186-1.284-.352-1.93-.493l.035-.164c.65.141,1.3.307,1.94.5Zm9.96,41.78-.147-.08c.319-.585.617-1.19.885-1.8l.153.069c-.268.613-.57,1.221-.891,1.811m1.633-3.69-.159-.055c.217-.63.411-1.274.575-1.92l.162.041c-.166.65-.362,1.3-.579,1.934m1.335-7.932h-.166v-.059c0-.666-.029-1.341-.082-2l.164-.014c.055.667.082,1.347.082,2.016Zm-11.16-20.379c-.556-.364-1.137-.711-1.723-1.028l.08-.147c.589.321,1.173.669,1.732,1.035Zm-24.821-1.039-.08-.147c.591-.321,1.2-.619,1.817-.887l.069.153c-.613.264-1.219.562-1.8.881m21.3-.871c-.609-.268-1.237-.515-1.867-.73l.055-.159c.632.219,1.266.466,1.879.734Zm-17.627-.74-.053-.159c.634-.217,1.286-.411,1.936-.574l.041.162c-.646.161-1.294.354-1.924.57m13.839-.564c-.646-.164-1.306-.3-1.963-.411l.027-.164c.662.11,1.327.249,1.975.413Zm-3.954-.658c-.662-.055-1.335-.082-2-.084v-.166c.671,0,1.353.029,2.018.084Zm-4.295-6.411-.035-.164c.65-.141,1.313-.258,1.973-.352l.023.164c-.656.1-1.315.213-1.961.352m9.9-.345c-.652-.094-1.319-.164-1.979-.211l.012-.164c.666.049,1.335.119,1.993.213Zm-5.958-.215-.012-.166c.656-.045,1.323-.069,1.985-.069h.018V12.7h-.018c-.658,0-1.321.025-1.973.069m-42.5,35.726h-7.926l5.651-3.942Zm-44.587,0H94.609l-7.568-6.256Z" transform="translate(-74.026 -12.53)"/><circle class="b" cx="11.441" cy="11.441" r="11.441" transform="translate(112.003 3.111)"/><path class="c" d="M498.123,21.28a1.523,1.523,0,1,1,1.523-1.523,1.522,1.522,0,0,1-1.523,1.523m27.06,39.165a.867.867,0,1,0-.867.867.868.868,0,0,0,.867-.867m4.195-47.915a14.6,14.6,0,1,0,14.6,14.6,14.6,14.6,0,0,0-14.6-14.6m6.109,21.986h-2.654v-3.96h-8.715a1.738,1.738,0,0,1-1.505-2.605c1.313-2.275,5.354-9.28,5.354-9.28h3.065L525.707,27.9h8.012a1.77,1.77,0,0,1,1.768,1.768v4.847Z" transform="translate(-406.32 -12.53)"/><path class="b" d="M138.084,95.935H126.23a2.468,2.468,0,0,1-2.463-2.59A2.515,2.515,0,0,1,126.3,91H140.11l-2.165-3.749H126.228a6.225,6.225,0,0,0-6.215,6.366,6.29,6.29,0,0,0,6.33,6.064H138.2a2.468,2.468,0,0,1,2.462,2.59,2.515,2.515,0,0,1-2.535,2.343H120l2.165,3.749H138.2A6.225,6.225,0,0,0,144.415,102a6.292,6.292,0,0,0-6.33-6.064m-20.831,12.43h-4.5l-5.011-8.681H98.7l-2.165-3.749h13.653a2.468,2.468,0,0,0,2.462-2.59A2.515,2.515,0,0,0,110.12,91H93.689l-2.165-3.749h18.549a6.293,6.293,0,0,1,6.332,6.1,6.223,6.223,0,0,1-4.334,6.043Zm-40.7,0h-4.5l-9.66-16.75-6.42,11.12-6.42-11.12-9.66,16.75h-4.5s9.143-15.855,11.422-19.8a3.135,3.135,0,0,1,2.68-1.584,3.245,3.245,0,0,1,2.844,1.652l3.639,6.3,3.639-6.3a3.245,3.245,0,0,1,2.844-1.652,3.131,3.131,0,0,1,2.68,1.584l11.42,19.8m22.231,0h-4.5l-9.662-16.75-6.42,11.12-2.253-3.9L81.88,88.563a3.134,3.134,0,0,1,2.682-1.584A3.242,3.242,0,0,1,87.4,88.632c2.343,4.058,11.385,19.733,11.385,19.733m55.437,1.527a2.128,2.128,0,1,1,2.128-2.128,2.127,2.127,0,0,1-2.128,2.128" transform="translate(-35.39 -72.405)"/></svg>