<svg width="14" height="20" viewBox="0 0 14 20" fill="none" xmlns="http://www.w3.org/2000/svg">
<path d="M3.6665 5V3.33333C3.6665 2.8913 3.8421 2.46738 4.15466 2.15482C4.46722 1.84226 4.89114 1.66666 5.33317 1.66666H8.6665C9.10853 1.66666 9.53246 1.84226 9.84502 2.15482C10.1576 2.46738 10.3332 2.8913 10.3332 3.33333V5M12.8332 5V16.6667C12.8332 17.1087 12.6576 17.5326 12.345 17.8452C12.0325 18.1577 11.6085 18.3333 11.1665 18.3333H2.83317C2.39114 18.3333 1.96722 18.1577 1.65466 17.8452C1.3421 17.5326 1.1665 17.1087 1.1665 16.6667V5H12.8332Z" stroke="#CF2437" stroke-width="2" stroke-linecap="round" stroke-linejoin="round"/>
</svg>
